<svg id="Groupe_1234" data-name="Groupe 1234" xmlns="http://www.w3.org/2000/svg" width="414.095" height="414.095" viewBox="0 0 414.095 414.095">
  <g id="Groupe_1" data-name="Groupe 1" transform="translate(0 0)">
    <path id="Tracé_1" data-name="Tracé 1" d="M207.048,0C92.686,0,0,92.686,0,207.048S92.686,414.1,207.048,414.1,414.1,321.409,414.1,207.048,321.409,0,207.048,0Zm0,103.524a58.232,58.232,0,1,1-58.232,58.232A58.232,58.232,0,0,1,207.048,103.524Zm0,258.81A154.871,154.871,0,0,1,97.3,316.807c13.1-33.815,45.453-58,83.87-58h51.762c38.449,0,70.8,24.166,83.87,58A154.812,154.812,0,0,1,207.048,362.333Z" transform="translate(0 0)"/>
  </g>
</svg>
