<svg id="Iconly_Bold_Lock" data-name="Iconly/Bold/Lock" xmlns="http://www.w3.org/2000/svg" width="250" height="294.113" viewBox="0 0 250 294.113">
  <g id="Lock">
    <path id="Lock-2" data-name="Lock" d="M187.239,294.113H62.775C28.161,294.113,0,266.576,0,232.728V160.12c0-26.638,17.595-50.036,43.782-58.222V79.358C43.927,35.6,80.264,0,124.782,0a82,82,0,0,1,57.638,23.236,77.867,77.867,0,0,1,23.8,56.122V101.9C232.4,110.078,250,133.482,250,160.12v72.608C250,266.576,221.845,294.113,187.239,294.113Zm-62.311-126.7a12.875,12.875,0,0,0-13,12.719v32.44a13.071,13.071,0,0,0,26.14,0v-32.44A12.951,12.951,0,0,0,124.927,167.412Zm.146-141.842c-30.258,0-54.992,23.993-55.138,53.484V98.735h110.13V79.358C180.065,49.7,155.4,25.57,125.073,25.57Z" fill="#200e32"/>
  </g>
</svg>
