<svg id="Groupe_1235" data-name="Groupe 1235" xmlns="http://www.w3.org/2000/svg" width="418.257" height="418.369" viewBox="0 0 418.257 418.369">
  <g id="Groupe_3" data-name="Groupe 3">
    <path id="Tracé_2" data-name="Tracé 2" d="M411.914,384.867l-109.5-109.495c23.7-29.008,36.771-65.534,36.771-105.409A169.952,169.952,0,0,0,169.227,0C75.364,0,0,76.1,0,169.962S76.091,339.925,169.227,339.925a168.966,168.966,0,0,0,105.409-36.8l109.5,109.495a22.588,22.588,0,0,0,14.627,5.753,19.612,19.612,0,0,0,13.867-5.745A19.1,19.1,0,0,0,411.914,384.867ZM39.222,169.962c0-72.087,58.653-130.74,130.74-130.74S300.7,97.875,300.7,169.962,242.049,300.7,169.962,300.7,39.222,242.033,39.222,169.962Z"/>
  </g>
</svg>
